<mxfile host="65bd71144e">
    <diagram id="e145zP_U35ZkMsE_s3Bo" name="Page-1">
        <mxGraphModel dx="2365" dy="1060" grid="1" gridSize="10" guides="1" tooltips="1" connect="1" arrows="1" fold="1" page="1" pageScale="1" pageWidth="850" pageHeight="1100" math="0" shadow="0">
            <root>
                <mxCell id="0"/>
                <mxCell id="1" parent="0"/>
                <mxCell id="4" style="edgeStyle=none;html=1;entryX=0.5;entryY=0;entryDx=0;entryDy=0;" parent="1" source="2" target="8" edge="1">
                    <mxGeometry relative="1" as="geometry">
                        <mxPoint x="180" y="160" as="targetPoint"/>
                    </mxGeometry>
                </mxCell>
                <mxCell id="2" value="user comes to page&lt;br&gt;(at the end of the day).&amp;nbsp;" style="rounded=1;whiteSpace=wrap;html=1;" parent="1" vertex="1">
                    <mxGeometry x="260" y="20" width="120" height="80" as="geometry"/>
                </mxCell>
                <mxCell id="6" style="edgeStyle=none;html=1;exitX=0.5;exitY=1;exitDx=0;exitDy=0;" parent="1" edge="1">
                    <mxGeometry relative="1" as="geometry">
                        <mxPoint x="320" y="270" as="targetPoint"/>
                        <mxPoint x="319.71000000000004" y="230" as="sourcePoint"/>
                    </mxGeometry>
                </mxCell>
                <mxCell id="8" value="Users use one password to access the form." style="rounded=1;whiteSpace=wrap;html=1;" parent="1" vertex="1">
                    <mxGeometry x="260" y="140" width="120" height="80" as="geometry"/>
                </mxCell>
                <mxCell id="9" value="User puts in full name &amp;amp; cohort group&amp;nbsp;&amp;nbsp;" style="rounded=1;whiteSpace=wrap;html=1;" parent="1" vertex="1">
                    <mxGeometry x="260" y="250" width="120" height="60" as="geometry"/>
                </mxCell>
                <mxCell id="10" value="" style="endArrow=classic;html=1;exitX=0.5;exitY=1;exitDx=0;exitDy=0;" parent="1" source="9" edge="1">
                    <mxGeometry width="50" height="50" relative="1" as="geometry">
                        <mxPoint x="320" y="380" as="sourcePoint"/>
                        <mxPoint x="320" y="370" as="targetPoint"/>
                    </mxGeometry>
                </mxCell>
                <mxCell id="14" style="edgeStyle=none;html=1;" parent="1" source="12" target="15" edge="1">
                    <mxGeometry relative="1" as="geometry">
                        <mxPoint x="320" y="470" as="targetPoint"/>
                    </mxGeometry>
                </mxCell>
                <mxCell id="12" value="user rates today class &amp;amp; guest speaker, between 1-5&amp;nbsp;" style="rounded=1;whiteSpace=wrap;html=1;" parent="1" vertex="1">
                    <mxGeometry x="260" y="350" width="120" height="60" as="geometry"/>
                </mxCell>
                <mxCell id="16" style="edgeStyle=none;html=1;" parent="1" source="15" target="17" edge="1">
                    <mxGeometry relative="1" as="geometry">
                        <mxPoint x="320" y="560" as="targetPoint"/>
                    </mxGeometry>
                </mxCell>
                <mxCell id="15" value="User type feedback in&amp;nbsp;" style="rounded=1;whiteSpace=wrap;html=1;" parent="1" vertex="1">
                    <mxGeometry x="260" y="440" width="120" height="60" as="geometry"/>
                </mxCell>
                <mxCell id="18" style="edgeStyle=none;html=1;" parent="1" source="17" target="25" edge="1">
                    <mxGeometry relative="1" as="geometry">
                        <mxPoint x="320" y="620" as="targetPoint"/>
                    </mxGeometry>
                </mxCell>
                <mxCell id="17" value="User can nominate bootcamper of the week" style="rounded=1;whiteSpace=wrap;html=1;" parent="1" vertex="1">
                    <mxGeometry x="260" y="530" width="120" height="60" as="geometry"/>
                </mxCell>
                <mxCell id="24" value="" style="edgeStyle=none;html=1;" parent="1" source="21" target="23" edge="1">
                    <mxGeometry relative="1" as="geometry"/>
                </mxCell>
                <mxCell id="21" value="User is thanked, they have option to submit feedback anonymously" style="rhombus;whiteSpace=wrap;html=1;" parent="1" vertex="1">
                    <mxGeometry x="213.13" y="700" width="213.75" height="200" as="geometry"/>
                </mxCell>
                <mxCell id="23" value="If yes, form submitted with name ommited" style="whiteSpace=wrap;html=1;" parent="1" vertex="1">
                    <mxGeometry x="480" y="770" width="120" height="60" as="geometry"/>
                </mxCell>
                <mxCell id="26" value="" style="edgeStyle=none;html=1;" parent="1" source="25" target="21" edge="1">
                    <mxGeometry relative="1" as="geometry"/>
                </mxCell>
                <mxCell id="25" value="users submits form&amp;nbsp;" style="rounded=1;whiteSpace=wrap;html=1;" parent="1" vertex="1">
                    <mxGeometry x="260" y="610" width="120" height="60" as="geometry"/>
                </mxCell>
            </root>
        </mxGraphModel>
    </diagram>
    <diagram id="loXtKxfpF9P1w3cOTOZO" name="Page-2">
        <mxGraphModel dx="2893" dy="2106" grid="1" gridSize="10" guides="1" tooltips="1" connect="1" arrows="1" fold="1" page="1" pageScale="1" pageWidth="827" pageHeight="1169" math="0" shadow="0">
            <root>
                <mxCell id="YJL-67EiCt6bNqZ6tI9J-0"/>
                <mxCell id="YJL-67EiCt6bNqZ6tI9J-1" parent="YJL-67EiCt6bNqZ6tI9J-0"/>
                <mxCell id="DOrqDDiLmd2C3OeY1r4R-15" style="edgeStyle=none;html=1;exitX=0.5;exitY=1;exitDx=0;exitDy=0;entryX=0.5;entryY=0;entryDx=0;entryDy=0;" edge="1" parent="YJL-67EiCt6bNqZ6tI9J-1" source="YJL-67EiCt6bNqZ6tI9J-2" target="YJL-67EiCt6bNqZ6tI9J-3">
                    <mxGeometry relative="1" as="geometry"/>
                </mxCell>
                <mxCell id="DOrqDDiLmd2C3OeY1r4R-17" style="edgeStyle=none;html=1;exitX=0.5;exitY=1;exitDx=0;exitDy=0;entryX=0.5;entryY=0;entryDx=0;entryDy=0;" edge="1" parent="YJL-67EiCt6bNqZ6tI9J-1" source="YJL-67EiCt6bNqZ6tI9J-2" target="YJL-67EiCt6bNqZ6tI9J-4">
                    <mxGeometry relative="1" as="geometry"/>
                </mxCell>
                <mxCell id="YJL-67EiCt6bNqZ6tI9J-2" value="User enters the bootcamper portal" style="rounded=0;whiteSpace=wrap;html=1;" vertex="1" parent="YJL-67EiCt6bNqZ6tI9J-1">
                    <mxGeometry x="304" y="-1160" width="220" height="110" as="geometry"/>
                </mxCell>
                <mxCell id="DOrqDDiLmd2C3OeY1r4R-16" style="edgeStyle=none;html=1;exitX=0.5;exitY=1;exitDx=0;exitDy=0;entryX=0.5;entryY=0;entryDx=0;entryDy=0;" edge="1" parent="YJL-67EiCt6bNqZ6tI9J-1" source="YJL-67EiCt6bNqZ6tI9J-3" target="DOrqDDiLmd2C3OeY1r4R-1">
                    <mxGeometry relative="1" as="geometry"/>
                </mxCell>
                <mxCell id="YJL-67EiCt6bNqZ6tI9J-3" value="Clicks on feedback form" style="rhombus;whiteSpace=wrap;html=1;" vertex="1" parent="YJL-67EiCt6bNqZ6tI9J-1">
                    <mxGeometry x="-270" y="-1000" width="150" height="140" as="geometry"/>
                </mxCell>
                <mxCell id="DOrqDDiLmd2C3OeY1r4R-19" style="edgeStyle=none;html=1;exitX=0.5;exitY=1;exitDx=0;exitDy=0;entryX=0.5;entryY=0;entryDx=0;entryDy=0;" edge="1" parent="YJL-67EiCt6bNqZ6tI9J-1" source="YJL-67EiCt6bNqZ6tI9J-4" target="DOrqDDiLmd2C3OeY1r4R-18">
                    <mxGeometry relative="1" as="geometry"/>
                </mxCell>
                <mxCell id="YJL-67EiCt6bNqZ6tI9J-4" value="Browses rest of site" style="rhombus;whiteSpace=wrap;html=1;" vertex="1" parent="YJL-67EiCt6bNqZ6tI9J-1">
                    <mxGeometry x="870" y="-1010" width="150" height="140" as="geometry"/>
                </mxCell>
                <mxCell id="DOrqDDiLmd2C3OeY1r4R-0" style="edgeStyle=none;html=1;exitX=0.5;exitY=1;exitDx=0;exitDy=0;" edge="1" parent="YJL-67EiCt6bNqZ6tI9J-1">
                    <mxGeometry relative="1" as="geometry">
                        <mxPoint x="-193.13" y="-690" as="targetPoint"/>
                        <mxPoint x="-193.41999999999996" y="-730" as="sourcePoint"/>
                    </mxGeometry>
                </mxCell>
                <mxCell id="DOrqDDiLmd2C3OeY1r4R-1" value="Users use one password to access the form." style="rounded=1;whiteSpace=wrap;html=1;" vertex="1" parent="YJL-67EiCt6bNqZ6tI9J-1">
                    <mxGeometry x="-253.13" y="-820" width="120" height="80" as="geometry"/>
                </mxCell>
                <mxCell id="DOrqDDiLmd2C3OeY1r4R-2" value="User puts in full name &amp;amp; cohort group&amp;nbsp;&amp;nbsp;" style="rounded=1;whiteSpace=wrap;html=1;" vertex="1" parent="YJL-67EiCt6bNqZ6tI9J-1">
                    <mxGeometry x="-253.13" y="-710" width="120" height="60" as="geometry"/>
                </mxCell>
                <mxCell id="DOrqDDiLmd2C3OeY1r4R-3" value="" style="endArrow=classic;html=1;exitX=0.5;exitY=1;exitDx=0;exitDy=0;" edge="1" parent="YJL-67EiCt6bNqZ6tI9J-1" source="DOrqDDiLmd2C3OeY1r4R-2">
                    <mxGeometry width="50" height="50" relative="1" as="geometry">
                        <mxPoint x="-193.13" y="-580" as="sourcePoint"/>
                        <mxPoint x="-193.13" y="-590" as="targetPoint"/>
                    </mxGeometry>
                </mxCell>
                <mxCell id="DOrqDDiLmd2C3OeY1r4R-4" style="edgeStyle=none;html=1;" edge="1" parent="YJL-67EiCt6bNqZ6tI9J-1" source="DOrqDDiLmd2C3OeY1r4R-5" target="DOrqDDiLmd2C3OeY1r4R-7">
                    <mxGeometry relative="1" as="geometry">
                        <mxPoint x="-193.13" y="-490" as="targetPoint"/>
                    </mxGeometry>
                </mxCell>
                <mxCell id="DOrqDDiLmd2C3OeY1r4R-5" value="user rates today class &amp;amp; guest speaker, between 1-5&amp;nbsp;" style="rounded=1;whiteSpace=wrap;html=1;" vertex="1" parent="YJL-67EiCt6bNqZ6tI9J-1">
                    <mxGeometry x="-253.13" y="-610" width="120" height="60" as="geometry"/>
                </mxCell>
                <mxCell id="DOrqDDiLmd2C3OeY1r4R-6" style="edgeStyle=none;html=1;" edge="1" parent="YJL-67EiCt6bNqZ6tI9J-1" source="DOrqDDiLmd2C3OeY1r4R-7" target="DOrqDDiLmd2C3OeY1r4R-9">
                    <mxGeometry relative="1" as="geometry">
                        <mxPoint x="-193.13" y="-400" as="targetPoint"/>
                    </mxGeometry>
                </mxCell>
                <mxCell id="DOrqDDiLmd2C3OeY1r4R-7" value="User type feedback in&amp;nbsp;" style="rounded=1;whiteSpace=wrap;html=1;" vertex="1" parent="YJL-67EiCt6bNqZ6tI9J-1">
                    <mxGeometry x="-253.13" y="-520" width="120" height="60" as="geometry"/>
                </mxCell>
                <mxCell id="DOrqDDiLmd2C3OeY1r4R-8" style="edgeStyle=none;html=1;" edge="1" parent="YJL-67EiCt6bNqZ6tI9J-1" source="DOrqDDiLmd2C3OeY1r4R-9" target="DOrqDDiLmd2C3OeY1r4R-14">
                    <mxGeometry relative="1" as="geometry">
                        <mxPoint x="-193.13" y="-340" as="targetPoint"/>
                    </mxGeometry>
                </mxCell>
                <mxCell id="DOrqDDiLmd2C3OeY1r4R-9" value="User can nominate bootcamper of the week" style="rounded=1;whiteSpace=wrap;html=1;" vertex="1" parent="YJL-67EiCt6bNqZ6tI9J-1">
                    <mxGeometry x="-253.13" y="-430" width="120" height="60" as="geometry"/>
                </mxCell>
                <mxCell id="DOrqDDiLmd2C3OeY1r4R-41" style="edgeStyle=none;html=1;exitX=1;exitY=1;exitDx=0;exitDy=0;entryX=0.5;entryY=0;entryDx=0;entryDy=0;" edge="1" parent="YJL-67EiCt6bNqZ6tI9J-1" source="DOrqDDiLmd2C3OeY1r4R-11" target="DOrqDDiLmd2C3OeY1r4R-40">
                    <mxGeometry relative="1" as="geometry"/>
                </mxCell>
                <mxCell id="DOrqDDiLmd2C3OeY1r4R-42" style="edgeStyle=none;html=1;exitX=0;exitY=1;exitDx=0;exitDy=0;entryX=0.5;entryY=0;entryDx=0;entryDy=0;" edge="1" parent="YJL-67EiCt6bNqZ6tI9J-1" source="DOrqDDiLmd2C3OeY1r4R-11" target="DOrqDDiLmd2C3OeY1r4R-39">
                    <mxGeometry relative="1" as="geometry"/>
                </mxCell>
                <mxCell id="DOrqDDiLmd2C3OeY1r4R-11" value="User is thanked, they have option to submit feedback anonymously" style="rhombus;whiteSpace=wrap;html=1;" vertex="1" parent="YJL-67EiCt6bNqZ6tI9J-1">
                    <mxGeometry x="-300" y="-260" width="213.75" height="200" as="geometry"/>
                </mxCell>
                <mxCell id="DOrqDDiLmd2C3OeY1r4R-47" style="edgeStyle=none;html=1;exitX=0;exitY=0.5;exitDx=0;exitDy=0;" edge="1" parent="YJL-67EiCt6bNqZ6tI9J-1" source="DOrqDDiLmd2C3OeY1r4R-12">
                    <mxGeometry relative="1" as="geometry">
                        <mxPoint x="-250" y="131" as="targetPoint"/>
                    </mxGeometry>
                </mxCell>
                <mxCell id="DOrqDDiLmd2C3OeY1r4R-12" value="Form submitted with name ommited" style="whiteSpace=wrap;html=1;" vertex="1" parent="YJL-67EiCt6bNqZ6tI9J-1">
                    <mxGeometry x="-150" y="100" width="120" height="60" as="geometry"/>
                </mxCell>
                <mxCell id="DOrqDDiLmd2C3OeY1r4R-13" value="" style="edgeStyle=none;html=1;" edge="1" parent="YJL-67EiCt6bNqZ6tI9J-1" source="DOrqDDiLmd2C3OeY1r4R-14" target="DOrqDDiLmd2C3OeY1r4R-11">
                    <mxGeometry relative="1" as="geometry"/>
                </mxCell>
                <mxCell id="DOrqDDiLmd2C3OeY1r4R-14" value="users submits form&amp;nbsp;" style="rounded=1;whiteSpace=wrap;html=1;" vertex="1" parent="YJL-67EiCt6bNqZ6tI9J-1">
                    <mxGeometry x="-253.13" y="-350" width="120" height="60" as="geometry"/>
                </mxCell>
                <mxCell id="DOrqDDiLmd2C3OeY1r4R-24" style="edgeStyle=none;html=1;exitX=0.5;exitY=1;exitDx=0;exitDy=0;entryX=0.5;entryY=0;entryDx=0;entryDy=0;" edge="1" parent="YJL-67EiCt6bNqZ6tI9J-1" source="DOrqDDiLmd2C3OeY1r4R-18" target="DOrqDDiLmd2C3OeY1r4R-20">
                    <mxGeometry relative="1" as="geometry"/>
                </mxCell>
                <mxCell id="DOrqDDiLmd2C3OeY1r4R-18" value="User can browse categories by scrolling" style="rounded=0;whiteSpace=wrap;html=1;" vertex="1" parent="YJL-67EiCt6bNqZ6tI9J-1">
                    <mxGeometry x="885" y="-810" width="120" height="60" as="geometry"/>
                </mxCell>
                <mxCell id="DOrqDDiLmd2C3OeY1r4R-25" style="edgeStyle=none;html=1;exitX=0.5;exitY=1;exitDx=0;exitDy=0;entryX=0.5;entryY=0;entryDx=0;entryDy=0;" edge="1" parent="YJL-67EiCt6bNqZ6tI9J-1" source="DOrqDDiLmd2C3OeY1r4R-20" target="DOrqDDiLmd2C3OeY1r4R-22">
                    <mxGeometry relative="1" as="geometry"/>
                </mxCell>
                <mxCell id="DOrqDDiLmd2C3OeY1r4R-20" value="User finds topic of interest, and can navigate options available" style="rounded=0;whiteSpace=wrap;html=1;" vertex="1" parent="YJL-67EiCt6bNqZ6tI9J-1">
                    <mxGeometry x="885" y="-710" width="120" height="70" as="geometry"/>
                </mxCell>
                <mxCell id="DOrqDDiLmd2C3OeY1r4R-26" style="edgeStyle=none;html=1;exitX=0.5;exitY=1;exitDx=0;exitDy=0;entryX=0.5;entryY=0;entryDx=0;entryDy=0;" edge="1" parent="YJL-67EiCt6bNqZ6tI9J-1" source="DOrqDDiLmd2C3OeY1r4R-22" target="DOrqDDiLmd2C3OeY1r4R-23">
                    <mxGeometry relative="1" as="geometry"/>
                </mxCell>
                <mxCell id="DOrqDDiLmd2C3OeY1r4R-22" value="User clicks on the resource" style="rhombus;whiteSpace=wrap;html=1;" vertex="1" parent="YJL-67EiCt6bNqZ6tI9J-1">
                    <mxGeometry x="882.5" y="-600" width="125" height="120" as="geometry"/>
                </mxCell>
                <mxCell id="DOrqDDiLmd2C3OeY1r4R-34" style="edgeStyle=none;html=1;exitX=0.5;exitY=1;exitDx=0;exitDy=0;entryX=0.5;entryY=0;entryDx=0;entryDy=0;" edge="1" parent="YJL-67EiCt6bNqZ6tI9J-1" source="DOrqDDiLmd2C3OeY1r4R-23" target="DOrqDDiLmd2C3OeY1r4R-27">
                    <mxGeometry relative="1" as="geometry"/>
                </mxCell>
                <mxCell id="DOrqDDiLmd2C3OeY1r4R-23" value="User is taken to another page where they can view more informaiton (Videos, diagrams ect)" style="rounded=0;whiteSpace=wrap;html=1;" vertex="1" parent="YJL-67EiCt6bNqZ6tI9J-1">
                    <mxGeometry x="877.5" y="-440" width="135" height="80" as="geometry"/>
                </mxCell>
                <mxCell id="DOrqDDiLmd2C3OeY1r4R-59" style="edgeStyle=none;html=1;exitX=0.5;exitY=1;exitDx=0;exitDy=0;entryX=0.5;entryY=0;entryDx=0;entryDy=0;" edge="1" parent="YJL-67EiCt6bNqZ6tI9J-1" source="DOrqDDiLmd2C3OeY1r4R-27" target="DOrqDDiLmd2C3OeY1r4R-58">
                    <mxGeometry relative="1" as="geometry"/>
                </mxCell>
                <mxCell id="DOrqDDiLmd2C3OeY1r4R-27" value="User clicks on home icon" style="rhombus;whiteSpace=wrap;html=1;" vertex="1" parent="YJL-67EiCt6bNqZ6tI9J-1">
                    <mxGeometry x="865" y="-330" width="160" height="140" as="geometry"/>
                </mxCell>
                <mxCell id="DOrqDDiLmd2C3OeY1r4R-35" value="User is taken to home page" style="whiteSpace=wrap;html=1;" vertex="1" parent="YJL-67EiCt6bNqZ6tI9J-1">
                    <mxGeometry x="-373.13" y="100" width="120" height="60" as="geometry"/>
                </mxCell>
                <mxCell id="DOrqDDiLmd2C3OeY1r4R-46" style="edgeStyle=none;html=1;exitX=0.5;exitY=1;exitDx=0;exitDy=0;entryX=0.5;entryY=0;entryDx=0;entryDy=0;" edge="1" parent="YJL-67EiCt6bNqZ6tI9J-1" source="DOrqDDiLmd2C3OeY1r4R-39" target="DOrqDDiLmd2C3OeY1r4R-35">
                    <mxGeometry relative="1" as="geometry"/>
                </mxCell>
                <mxCell id="DOrqDDiLmd2C3OeY1r4R-39" value="&lt;span&gt;No,&amp;nbsp; does not wish to submit annoymous form&lt;/span&gt;" style="ellipse;whiteSpace=wrap;html=1;aspect=fixed;" vertex="1" parent="YJL-67EiCt6bNqZ6tI9J-1">
                    <mxGeometry x="-360" y="-60" width="120" height="120" as="geometry"/>
                </mxCell>
                <mxCell id="DOrqDDiLmd2C3OeY1r4R-43" style="edgeStyle=none;html=1;exitX=0.5;exitY=1;exitDx=0;exitDy=0;entryX=0.5;entryY=0;entryDx=0;entryDy=0;" edge="1" parent="YJL-67EiCt6bNqZ6tI9J-1" source="DOrqDDiLmd2C3OeY1r4R-40" target="DOrqDDiLmd2C3OeY1r4R-12">
                    <mxGeometry relative="1" as="geometry"/>
                </mxCell>
                <mxCell id="DOrqDDiLmd2C3OeY1r4R-40" value="&lt;span&gt;Yes, wish to submit annoymous form&lt;/span&gt;" style="ellipse;whiteSpace=wrap;html=1;aspect=fixed;" vertex="1" parent="YJL-67EiCt6bNqZ6tI9J-1">
                    <mxGeometry x="-150" y="-60" width="120" height="120" as="geometry"/>
                </mxCell>
                <mxCell id="DOrqDDiLmd2C3OeY1r4R-56" value="" style="curved=1;endArrow=classic;html=1;exitX=0;exitY=0.5;exitDx=0;exitDy=0;entryX=0;entryY=0.5;entryDx=0;entryDy=0;" edge="1" parent="YJL-67EiCt6bNqZ6tI9J-1" source="DOrqDDiLmd2C3OeY1r4R-35" target="YJL-67EiCt6bNqZ6tI9J-2">
                    <mxGeometry width="50" height="50" relative="1" as="geometry">
                        <mxPoint x="-570" y="-270" as="sourcePoint"/>
                        <mxPoint x="-400" y="-930" as="targetPoint"/>
                        <Array as="points">
                            <mxPoint x="-690" y="230"/>
                            <mxPoint x="-670" y="-320"/>
                            <mxPoint x="-680" y="-750"/>
                            <mxPoint x="-690" y="-1150"/>
                        </Array>
                    </mxGeometry>
                </mxCell>
                <mxCell id="DOrqDDiLmd2C3OeY1r4R-57" value="" style="curved=1;endArrow=classic;html=1;exitX=1;exitY=0.5;exitDx=0;exitDy=0;entryX=1;entryY=0.5;entryDx=0;entryDy=0;" edge="1" parent="YJL-67EiCt6bNqZ6tI9J-1" source="DOrqDDiLmd2C3OeY1r4R-58" target="YJL-67EiCt6bNqZ6tI9J-2">
                    <mxGeometry width="50" height="50" relative="1" as="geometry">
                        <mxPoint x="1060" y="-260" as="sourcePoint"/>
                        <mxPoint x="1360" y="-930" as="targetPoint"/>
                        <Array as="points">
                            <mxPoint x="1680" y="-230"/>
                            <mxPoint x="1500" y="-1160"/>
                        </Array>
                    </mxGeometry>
                </mxCell>
                <mxCell id="DOrqDDiLmd2C3OeY1r4R-58" value="User is taken to home page" style="whiteSpace=wrap;html=1;" vertex="1" parent="YJL-67EiCt6bNqZ6tI9J-1">
                    <mxGeometry x="885.0000000000001" y="-120" width="120" height="60" as="geometry"/>
                </mxCell>
            </root>
        </mxGraphModel>
    </diagram>
</mxfile>